%TF.GenerationSoftware,KiCad,Pcbnew,6.0.7+dfsg-1~bpo10+1*%
%TF.CreationDate,2023-05-25T14:56:37+01:00*%
%TF.ProjectId,stm32_lcd_driver,73746d33-325f-46c6-9364-5f6472697665,C*%
%TF.SameCoordinates,Original*%
%TF.FileFunction,Soldermask,Bot*%
%TF.FilePolarity,Negative*%
%FSLAX46Y46*%
G04 Gerber Fmt 4.6, Leading zero omitted, Abs format (unit mm)*
G04 Created by KiCad (PCBNEW 6.0.7+dfsg-1~bpo10+1) date 2023-05-25 14:56:37*
%MOMM*%
%LPD*%
G01*
G04 APERTURE LIST*
%ADD10R,1.700000X1.700000*%
%ADD11O,1.700000X1.700000*%
%ADD12R,1.600000X1.600000*%
%ADD13O,1.600000X1.600000*%
%ADD14C,1.440000*%
%ADD15O,3.048000X1.850000*%
G04 APERTURE END LIST*
D10*
%TO.C,J1*%
X122732800Y-120460700D03*
D11*
X122732800Y-123000700D03*
X122732800Y-125540700D03*
%TD*%
D12*
%TO.C,U2*%
X126833000Y-100170000D03*
D13*
X128833000Y-100170000D03*
X130833000Y-100170000D03*
X132833000Y-100170000D03*
X134833000Y-100170000D03*
X134833000Y-90010000D03*
X132833000Y-90010000D03*
X130833000Y-90010000D03*
X128833000Y-90010000D03*
X126833000Y-90010000D03*
%TD*%
D14*
%TO.C,RV1*%
X150197200Y-95696000D03*
X147657200Y-95696000D03*
X145117200Y-95696000D03*
%TD*%
D15*
%TO.C,SW1*%
X108454800Y-109249200D03*
X120954800Y-109249200D03*
X108454800Y-114249200D03*
X120954800Y-114249200D03*
%TD*%
%TO.C,SW2*%
X108429400Y-94263200D03*
X120929400Y-94263200D03*
X120929400Y-99263200D03*
X108429400Y-99263200D03*
%TD*%
D10*
%TO.C,J2*%
X99055000Y-85090000D03*
D11*
X101595000Y-85090000D03*
X99055000Y-87630000D03*
X101595000Y-87630000D03*
X99055000Y-90170000D03*
X101595000Y-90170000D03*
X99055000Y-92710000D03*
X101595000Y-92710000D03*
X99055000Y-95250000D03*
X101595000Y-95250000D03*
X99055000Y-97790000D03*
X101595000Y-97790000D03*
X99055000Y-100330000D03*
X101595000Y-100330000D03*
X99055000Y-102870000D03*
X101595000Y-102870000D03*
X99055000Y-105410000D03*
X101595000Y-105410000D03*
X99055000Y-107950000D03*
X101595000Y-107950000D03*
X99055000Y-110490000D03*
X101595000Y-110490000D03*
X99055000Y-113030000D03*
X101595000Y-113030000D03*
X99055000Y-115570000D03*
X101595000Y-115570000D03*
X99055000Y-118110000D03*
X101595000Y-118110000D03*
X99055000Y-120650000D03*
X101595000Y-120650000D03*
X99055000Y-123190000D03*
X101595000Y-123190000D03*
X99055000Y-125730000D03*
X101595000Y-125730000D03*
X99055000Y-128270000D03*
X101595000Y-128270000D03*
X99055000Y-130810000D03*
X101595000Y-130810000D03*
%TD*%
D10*
%TO.C,J3*%
X160015000Y-85090000D03*
D11*
X162555000Y-85090000D03*
X160015000Y-87630000D03*
X162555000Y-87630000D03*
X160015000Y-90170000D03*
X162555000Y-90170000D03*
X160015000Y-92710000D03*
X162555000Y-92710000D03*
X160015000Y-95250000D03*
X162555000Y-95250000D03*
X160015000Y-97790000D03*
X162555000Y-97790000D03*
X160015000Y-100330000D03*
X162555000Y-100330000D03*
X160015000Y-102870000D03*
X162555000Y-102870000D03*
X160015000Y-105410000D03*
X162555000Y-105410000D03*
X160015000Y-107950000D03*
X162555000Y-107950000D03*
X160015000Y-110490000D03*
X162555000Y-110490000D03*
X160015000Y-113030000D03*
X162555000Y-113030000D03*
X160015000Y-115570000D03*
X162555000Y-115570000D03*
X160015000Y-118110000D03*
X162555000Y-118110000D03*
X160015000Y-120650000D03*
X162555000Y-120650000D03*
X160015000Y-123190000D03*
X162555000Y-123190000D03*
X160015000Y-125730000D03*
X162555000Y-125730000D03*
X160015000Y-128270000D03*
X162555000Y-128270000D03*
X160015000Y-130810000D03*
X162555000Y-130810000D03*
%TD*%
M02*
