%TF.GenerationSoftware,KiCad,Pcbnew,6.0.7+dfsg-1~bpo10+1*%
%TF.CreationDate,2023-05-25T14:56:37+01:00*%
%TF.ProjectId,stm32_lcd_driver,73746d33-325f-46c6-9364-5f6472697665,C*%
%TF.SameCoordinates,Original*%
%TF.FileFunction,Legend,Top*%
%TF.FilePolarity,Positive*%
%FSLAX46Y46*%
G04 Gerber Fmt 4.6, Leading zero omitted, Abs format (unit mm)*
G04 Created by KiCad (PCBNEW 6.0.7+dfsg-1~bpo10+1) date 2023-05-25 14:56:37*
%MOMM*%
%LPD*%
G01*
G04 APERTURE LIST*
%ADD10C,0.250000*%
%ADD11C,0.160000*%
%ADD12C,0.170000*%
%ADD13C,0.200000*%
%ADD14C,0.150000*%
%ADD15C,0.120000*%
%ADD16C,0.100000*%
G04 APERTURE END LIST*
D10*
X128727200Y-122224800D02*
G75*
G03*
X128727200Y-122224800I-101600J0D01*
G01*
D11*
X157313380Y-113791904D02*
X157313380Y-113220476D01*
X158313380Y-113506190D02*
X157313380Y-113506190D01*
X157313380Y-112982380D02*
X158313380Y-112315714D01*
X157313380Y-112315714D02*
X158313380Y-112982380D01*
X96528000Y-109092904D02*
X96480380Y-109188142D01*
X96480380Y-109331000D01*
X96528000Y-109473857D01*
X96623238Y-109569095D01*
X96718476Y-109616714D01*
X96908952Y-109664333D01*
X97051809Y-109664333D01*
X97242285Y-109616714D01*
X97337523Y-109569095D01*
X97432761Y-109473857D01*
X97480380Y-109331000D01*
X97480380Y-109235761D01*
X97432761Y-109092904D01*
X97385142Y-109045285D01*
X97051809Y-109045285D01*
X97051809Y-109235761D01*
X97480380Y-108616714D02*
X96480380Y-108616714D01*
X97480380Y-108045285D01*
X96480380Y-108045285D01*
X97480380Y-107569095D02*
X96480380Y-107569095D01*
X96480380Y-107331000D01*
X96528000Y-107188142D01*
X96623238Y-107092904D01*
X96718476Y-107045285D01*
X96908952Y-106997666D01*
X97051809Y-106997666D01*
X97242285Y-107045285D01*
X97337523Y-107092904D01*
X97432761Y-107188142D01*
X97480380Y-107331000D01*
X97480380Y-107569095D01*
D12*
X151908047Y-132957380D02*
X151574714Y-132481190D01*
X151336619Y-132957380D02*
X151336619Y-131957380D01*
X151717571Y-131957380D01*
X151812809Y-132005000D01*
X151860428Y-132052619D01*
X151908047Y-132147857D01*
X151908047Y-132290714D01*
X151860428Y-132385952D01*
X151812809Y-132433571D01*
X151717571Y-132481190D01*
X151336619Y-132481190D01*
X152717571Y-132909761D02*
X152622333Y-132957380D01*
X152431857Y-132957380D01*
X152336619Y-132909761D01*
X152289000Y-132814523D01*
X152289000Y-132433571D01*
X152336619Y-132338333D01*
X152431857Y-132290714D01*
X152622333Y-132290714D01*
X152717571Y-132338333D01*
X152765190Y-132433571D01*
X152765190Y-132528809D01*
X152289000Y-132624047D01*
X153098523Y-132290714D02*
X153336619Y-132957380D01*
X153574714Y-132290714D01*
X155289000Y-132862142D02*
X155241380Y-132909761D01*
X155098523Y-132957380D01*
X155003285Y-132957380D01*
X154860428Y-132909761D01*
X154765190Y-132814523D01*
X154717571Y-132719285D01*
X154669952Y-132528809D01*
X154669952Y-132385952D01*
X154717571Y-132195476D01*
X154765190Y-132100238D01*
X154860428Y-132005000D01*
X155003285Y-131957380D01*
X155098523Y-131957380D01*
X155241380Y-132005000D01*
X155289000Y-132052619D01*
X113352419Y-119541580D02*
X113019085Y-119065390D01*
X112780990Y-119541580D02*
X112780990Y-118541580D01*
X113161942Y-118541580D01*
X113257180Y-118589200D01*
X113304800Y-118636819D01*
X113352419Y-118732057D01*
X113352419Y-118874914D01*
X113304800Y-118970152D01*
X113257180Y-119017771D01*
X113161942Y-119065390D01*
X112780990Y-119065390D01*
X113780990Y-119017771D02*
X114114323Y-119017771D01*
X114257180Y-119541580D02*
X113780990Y-119541580D01*
X113780990Y-118541580D01*
X114257180Y-118541580D01*
X114638133Y-119493961D02*
X114780990Y-119541580D01*
X115019085Y-119541580D01*
X115114323Y-119493961D01*
X115161942Y-119446342D01*
X115209561Y-119351104D01*
X115209561Y-119255866D01*
X115161942Y-119160628D01*
X115114323Y-119113009D01*
X115019085Y-119065390D01*
X114828609Y-119017771D01*
X114733371Y-118970152D01*
X114685752Y-118922533D01*
X114638133Y-118827295D01*
X114638133Y-118732057D01*
X114685752Y-118636819D01*
X114733371Y-118589200D01*
X114828609Y-118541580D01*
X115066704Y-118541580D01*
X115209561Y-118589200D01*
X115638133Y-119017771D02*
X115971466Y-119017771D01*
X116114323Y-119541580D02*
X115638133Y-119541580D01*
X115638133Y-118541580D01*
X116114323Y-118541580D01*
X116400038Y-118541580D02*
X116971466Y-118541580D01*
X116685752Y-119541580D02*
X116685752Y-118541580D01*
D11*
X125801380Y-121591295D02*
X125325190Y-121924628D01*
X125801380Y-122162723D02*
X124801380Y-122162723D01*
X124801380Y-121781771D01*
X124849000Y-121686533D01*
X124896619Y-121638914D01*
X124991857Y-121591295D01*
X125134714Y-121591295D01*
X125229952Y-121638914D01*
X125277571Y-121686533D01*
X125325190Y-121781771D01*
X125325190Y-122162723D01*
X124801380Y-121162723D02*
X125610904Y-121162723D01*
X125706142Y-121115104D01*
X125753761Y-121067485D01*
X125801380Y-120972247D01*
X125801380Y-120781771D01*
X125753761Y-120686533D01*
X125706142Y-120638914D01*
X125610904Y-120591295D01*
X124801380Y-120591295D01*
X125801380Y-120115104D02*
X124801380Y-120115104D01*
X125801380Y-119543676D01*
X124801380Y-119543676D01*
D13*
X104531428Y-132687142D02*
X104745714Y-132758571D01*
X105102857Y-132758571D01*
X105245714Y-132687142D01*
X105317142Y-132615714D01*
X105388571Y-132472857D01*
X105388571Y-132330000D01*
X105317142Y-132187142D01*
X105245714Y-132115714D01*
X105102857Y-132044285D01*
X104817142Y-131972857D01*
X104674285Y-131901428D01*
X104602857Y-131830000D01*
X104531428Y-131687142D01*
X104531428Y-131544285D01*
X104602857Y-131401428D01*
X104674285Y-131330000D01*
X104817142Y-131258571D01*
X105174285Y-131258571D01*
X105388571Y-131330000D01*
X105817142Y-131258571D02*
X106674285Y-131258571D01*
X106245714Y-132758571D02*
X106245714Y-131258571D01*
X107174285Y-132758571D02*
X107174285Y-131258571D01*
X107674285Y-132330000D01*
X108174285Y-131258571D01*
X108174285Y-132758571D01*
X108745714Y-131258571D02*
X109674285Y-131258571D01*
X109174285Y-131830000D01*
X109388571Y-131830000D01*
X109531428Y-131901428D01*
X109602857Y-131972857D01*
X109674285Y-132115714D01*
X109674285Y-132472857D01*
X109602857Y-132615714D01*
X109531428Y-132687142D01*
X109388571Y-132758571D01*
X108960000Y-132758571D01*
X108817142Y-132687142D01*
X108745714Y-132615714D01*
X110245714Y-131401428D02*
X110317142Y-131330000D01*
X110460000Y-131258571D01*
X110817142Y-131258571D01*
X110960000Y-131330000D01*
X111031428Y-131401428D01*
X111102857Y-131544285D01*
X111102857Y-131687142D01*
X111031428Y-131901428D01*
X110174285Y-132758571D01*
X111102857Y-132758571D01*
X112888571Y-132758571D02*
X112888571Y-131258571D01*
X113745714Y-132758571D01*
X113745714Y-131258571D01*
X114460000Y-131258571D02*
X114460000Y-132472857D01*
X114531428Y-132615714D01*
X114602857Y-132687142D01*
X114745714Y-132758571D01*
X115031428Y-132758571D01*
X115174285Y-132687142D01*
X115245714Y-132615714D01*
X115317142Y-132472857D01*
X115317142Y-131258571D01*
X116888571Y-132615714D02*
X116817142Y-132687142D01*
X116602857Y-132758571D01*
X116460000Y-132758571D01*
X116245714Y-132687142D01*
X116102857Y-132544285D01*
X116031428Y-132401428D01*
X115960000Y-132115714D01*
X115960000Y-131901428D01*
X116031428Y-131615714D01*
X116102857Y-131472857D01*
X116245714Y-131330000D01*
X116460000Y-131258571D01*
X116602857Y-131258571D01*
X116817142Y-131330000D01*
X116888571Y-131401428D01*
X118245714Y-132758571D02*
X117531428Y-132758571D01*
X117531428Y-131258571D01*
X118745714Y-131972857D02*
X119245714Y-131972857D01*
X119460000Y-132758571D02*
X118745714Y-132758571D01*
X118745714Y-131258571D01*
X119460000Y-131258571D01*
X120388571Y-131258571D02*
X120674285Y-131258571D01*
X120817142Y-131330000D01*
X120960000Y-131472857D01*
X121031428Y-131758571D01*
X121031428Y-132258571D01*
X120960000Y-132544285D01*
X120817142Y-132687142D01*
X120674285Y-132758571D01*
X120388571Y-132758571D01*
X120245714Y-132687142D01*
X120102857Y-132544285D01*
X120031428Y-132258571D01*
X120031428Y-131758571D01*
X120102857Y-131472857D01*
X120245714Y-131330000D01*
X120388571Y-131258571D01*
X121674285Y-132187142D02*
X122817142Y-132187142D01*
X124031428Y-131972857D02*
X123531428Y-131972857D01*
X123531428Y-132758571D02*
X123531428Y-131258571D01*
X124245714Y-131258571D01*
X125102857Y-131258571D02*
X125245714Y-131258571D01*
X125388571Y-131330000D01*
X125460000Y-131401428D01*
X125531428Y-131544285D01*
X125602857Y-131830000D01*
X125602857Y-132187142D01*
X125531428Y-132472857D01*
X125460000Y-132615714D01*
X125388571Y-132687142D01*
X125245714Y-132758571D01*
X125102857Y-132758571D01*
X124960000Y-132687142D01*
X124888571Y-132615714D01*
X124817142Y-132472857D01*
X124745714Y-132187142D01*
X124745714Y-131830000D01*
X124817142Y-131544285D01*
X124888571Y-131401428D01*
X124960000Y-131330000D01*
X125102857Y-131258571D01*
X126102857Y-131258571D02*
X127031428Y-131258571D01*
X126531428Y-131830000D01*
X126745714Y-131830000D01*
X126888571Y-131901428D01*
X126960000Y-131972857D01*
X127031428Y-132115714D01*
X127031428Y-132472857D01*
X126960000Y-132615714D01*
X126888571Y-132687142D01*
X126745714Y-132758571D01*
X126317142Y-132758571D01*
X126174285Y-132687142D01*
X126102857Y-132615714D01*
X127960000Y-131258571D02*
X128102857Y-131258571D01*
X128245714Y-131330000D01*
X128317142Y-131401428D01*
X128388571Y-131544285D01*
X128460000Y-131830000D01*
X128460000Y-132187142D01*
X128388571Y-132472857D01*
X128317142Y-132615714D01*
X128245714Y-132687142D01*
X128102857Y-132758571D01*
X127960000Y-132758571D01*
X127817142Y-132687142D01*
X127745714Y-132615714D01*
X127674285Y-132472857D01*
X127602857Y-132187142D01*
X127602857Y-131830000D01*
X127674285Y-131544285D01*
X127745714Y-131401428D01*
X127817142Y-131330000D01*
X127960000Y-131258571D01*
X129960000Y-132758571D02*
X129460000Y-132044285D01*
X129102857Y-132758571D02*
X129102857Y-131258571D01*
X129674285Y-131258571D01*
X129817142Y-131330000D01*
X129888571Y-131401428D01*
X129960000Y-131544285D01*
X129960000Y-131758571D01*
X129888571Y-131901428D01*
X129817142Y-131972857D01*
X129674285Y-132044285D01*
X129102857Y-132044285D01*
X130817142Y-131901428D02*
X130674285Y-131830000D01*
X130602857Y-131758571D01*
X130531428Y-131615714D01*
X130531428Y-131544285D01*
X130602857Y-131401428D01*
X130674285Y-131330000D01*
X130817142Y-131258571D01*
X131102857Y-131258571D01*
X131245714Y-131330000D01*
X131317142Y-131401428D01*
X131388571Y-131544285D01*
X131388571Y-131615714D01*
X131317142Y-131758571D01*
X131245714Y-131830000D01*
X131102857Y-131901428D01*
X130817142Y-131901428D01*
X130674285Y-131972857D01*
X130602857Y-132044285D01*
X130531428Y-132187142D01*
X130531428Y-132472857D01*
X130602857Y-132615714D01*
X130674285Y-132687142D01*
X130817142Y-132758571D01*
X131102857Y-132758571D01*
X131245714Y-132687142D01*
X131317142Y-132615714D01*
X131388571Y-132472857D01*
X131388571Y-132187142D01*
X131317142Y-132044285D01*
X131245714Y-131972857D01*
X131102857Y-131901428D01*
X133888571Y-132758571D02*
X133174285Y-132758571D01*
X133174285Y-131258571D01*
X135245714Y-132615714D02*
X135174285Y-132687142D01*
X134960000Y-132758571D01*
X134817142Y-132758571D01*
X134602857Y-132687142D01*
X134460000Y-132544285D01*
X134388571Y-132401428D01*
X134317142Y-132115714D01*
X134317142Y-131901428D01*
X134388571Y-131615714D01*
X134460000Y-131472857D01*
X134602857Y-131330000D01*
X134817142Y-131258571D01*
X134960000Y-131258571D01*
X135174285Y-131330000D01*
X135245714Y-131401428D01*
X135888571Y-132758571D02*
X135888571Y-131258571D01*
X136245714Y-131258571D01*
X136460000Y-131330000D01*
X136602857Y-131472857D01*
X136674285Y-131615714D01*
X136745714Y-131901428D01*
X136745714Y-132115714D01*
X136674285Y-132401428D01*
X136602857Y-132544285D01*
X136460000Y-132687142D01*
X136245714Y-132758571D01*
X135888571Y-132758571D01*
X138531428Y-132758571D02*
X138531428Y-131258571D01*
X138888571Y-131258571D01*
X139102857Y-131330000D01*
X139245714Y-131472857D01*
X139317142Y-131615714D01*
X139388571Y-131901428D01*
X139388571Y-132115714D01*
X139317142Y-132401428D01*
X139245714Y-132544285D01*
X139102857Y-132687142D01*
X138888571Y-132758571D01*
X138531428Y-132758571D01*
X140031428Y-132758571D02*
X140031428Y-131758571D01*
X140031428Y-132044285D02*
X140102857Y-131901428D01*
X140174285Y-131830000D01*
X140317142Y-131758571D01*
X140460000Y-131758571D01*
X140960000Y-132758571D02*
X140960000Y-131758571D01*
X140960000Y-131258571D02*
X140888571Y-131330000D01*
X140960000Y-131401428D01*
X141031428Y-131330000D01*
X140960000Y-131258571D01*
X140960000Y-131401428D01*
X141531428Y-131758571D02*
X141888571Y-132758571D01*
X142245714Y-131758571D01*
X143388571Y-132687142D02*
X143245714Y-132758571D01*
X142960000Y-132758571D01*
X142817142Y-132687142D01*
X142745714Y-132544285D01*
X142745714Y-131972857D01*
X142817142Y-131830000D01*
X142960000Y-131758571D01*
X143245714Y-131758571D01*
X143388571Y-131830000D01*
X143460000Y-131972857D01*
X143460000Y-132115714D01*
X142745714Y-132258571D01*
X144102857Y-132758571D02*
X144102857Y-131758571D01*
X144102857Y-132044285D02*
X144174285Y-131901428D01*
X144245714Y-131830000D01*
X144388571Y-131758571D01*
X144531428Y-131758571D01*
D11*
X125277571Y-126861676D02*
X125277571Y-127195009D01*
X125801380Y-127195009D02*
X124801380Y-127195009D01*
X124801380Y-126718819D01*
X125801380Y-125861676D02*
X125801380Y-126337866D01*
X124801380Y-126337866D01*
X125515666Y-125575961D02*
X125515666Y-125099771D01*
X125801380Y-125671200D02*
X124801380Y-125337866D01*
X125801380Y-125004533D01*
X125753761Y-124718819D02*
X125801380Y-124575961D01*
X125801380Y-124337866D01*
X125753761Y-124242628D01*
X125706142Y-124195009D01*
X125610904Y-124147390D01*
X125515666Y-124147390D01*
X125420428Y-124195009D01*
X125372809Y-124242628D01*
X125325190Y-124337866D01*
X125277571Y-124528342D01*
X125229952Y-124623580D01*
X125182333Y-124671200D01*
X125087095Y-124718819D01*
X124991857Y-124718819D01*
X124896619Y-124671200D01*
X124849000Y-124623580D01*
X124801380Y-124528342D01*
X124801380Y-124290247D01*
X124849000Y-124147390D01*
X125801380Y-123718819D02*
X124801380Y-123718819D01*
X125277571Y-123718819D02*
X125277571Y-123147390D01*
X125801380Y-123147390D02*
X124801380Y-123147390D01*
D12*
X113136542Y-104460342D02*
X113088923Y-104507961D01*
X112946066Y-104555580D01*
X112850828Y-104555580D01*
X112707971Y-104507961D01*
X112612733Y-104412723D01*
X112565114Y-104317485D01*
X112517495Y-104127009D01*
X112517495Y-103984152D01*
X112565114Y-103793676D01*
X112612733Y-103698438D01*
X112707971Y-103603200D01*
X112850828Y-103555580D01*
X112946066Y-103555580D01*
X113088923Y-103603200D01*
X113136542Y-103650819D01*
X113755590Y-103555580D02*
X113946066Y-103555580D01*
X114041304Y-103603200D01*
X114136542Y-103698438D01*
X114184161Y-103888914D01*
X114184161Y-104222247D01*
X114136542Y-104412723D01*
X114041304Y-104507961D01*
X113946066Y-104555580D01*
X113755590Y-104555580D01*
X113660352Y-104507961D01*
X113565114Y-104412723D01*
X113517495Y-104222247D01*
X113517495Y-103888914D01*
X113565114Y-103698438D01*
X113660352Y-103603200D01*
X113755590Y-103555580D01*
X114612733Y-103555580D02*
X114612733Y-104365104D01*
X114660352Y-104460342D01*
X114707971Y-104507961D01*
X114803209Y-104555580D01*
X114993685Y-104555580D01*
X115088923Y-104507961D01*
X115136542Y-104460342D01*
X115184161Y-104365104D01*
X115184161Y-103555580D01*
X115660352Y-104555580D02*
X115660352Y-103555580D01*
X116231780Y-104555580D01*
X116231780Y-103555580D01*
X116565114Y-103555580D02*
X117136542Y-103555580D01*
X116850828Y-104555580D02*
X116850828Y-103555580D01*
D11*
X97480380Y-105576666D02*
X97004190Y-105910000D01*
X97480380Y-106148095D02*
X96480380Y-106148095D01*
X96480380Y-105767142D01*
X96528000Y-105671904D01*
X96575619Y-105624285D01*
X96670857Y-105576666D01*
X96813714Y-105576666D01*
X96908952Y-105624285D01*
X96956571Y-105671904D01*
X97004190Y-105767142D01*
X97004190Y-106148095D01*
X96480380Y-105243333D02*
X97480380Y-104576666D01*
X96480380Y-104576666D02*
X97480380Y-105243333D01*
D14*
%TO.C,RV1*%
X147061961Y-92488380D02*
X146728628Y-92012190D01*
X146490533Y-92488380D02*
X146490533Y-91488380D01*
X146871485Y-91488380D01*
X146966723Y-91536000D01*
X147014342Y-91583619D01*
X147061961Y-91678857D01*
X147061961Y-91821714D01*
X147014342Y-91916952D01*
X146966723Y-91964571D01*
X146871485Y-92012190D01*
X146490533Y-92012190D01*
X147347676Y-91488380D02*
X147681009Y-92488380D01*
X148014342Y-91488380D01*
X148871485Y-92488380D02*
X148300057Y-92488380D01*
X148585771Y-92488380D02*
X148585771Y-91488380D01*
X148490533Y-91631238D01*
X148395295Y-91726476D01*
X148300057Y-91774095D01*
%TO.C,C1*%
X127468333Y-119278842D02*
X127420714Y-119326461D01*
X127277857Y-119374080D01*
X127182619Y-119374080D01*
X127039761Y-119326461D01*
X126944523Y-119231223D01*
X126896904Y-119135985D01*
X126849285Y-118945509D01*
X126849285Y-118802652D01*
X126896904Y-118612176D01*
X126944523Y-118516938D01*
X127039761Y-118421700D01*
X127182619Y-118374080D01*
X127277857Y-118374080D01*
X127420714Y-118421700D01*
X127468333Y-118469319D01*
X128420714Y-119374080D02*
X127849285Y-119374080D01*
X128135000Y-119374080D02*
X128135000Y-118374080D01*
X128039761Y-118516938D01*
X127944523Y-118612176D01*
X127849285Y-118659795D01*
%TO.C,C4*%
X130440133Y-116832842D02*
X130392514Y-116880461D01*
X130249657Y-116928080D01*
X130154419Y-116928080D01*
X130011561Y-116880461D01*
X129916323Y-116785223D01*
X129868704Y-116689985D01*
X129821085Y-116499509D01*
X129821085Y-116356652D01*
X129868704Y-116166176D01*
X129916323Y-116070938D01*
X130011561Y-115975700D01*
X130154419Y-115928080D01*
X130249657Y-115928080D01*
X130392514Y-115975700D01*
X130440133Y-116023319D01*
X131297276Y-116261414D02*
X131297276Y-116928080D01*
X131059180Y-115880461D02*
X130821085Y-116594747D01*
X131440133Y-116594747D01*
%TO.C,C5*%
X141946333Y-121642142D02*
X141898714Y-121689761D01*
X141755857Y-121737380D01*
X141660619Y-121737380D01*
X141517761Y-121689761D01*
X141422523Y-121594523D01*
X141374904Y-121499285D01*
X141327285Y-121308809D01*
X141327285Y-121165952D01*
X141374904Y-120975476D01*
X141422523Y-120880238D01*
X141517761Y-120785000D01*
X141660619Y-120737380D01*
X141755857Y-120737380D01*
X141898714Y-120785000D01*
X141946333Y-120832619D01*
X142851095Y-120737380D02*
X142374904Y-120737380D01*
X142327285Y-121213571D01*
X142374904Y-121165952D01*
X142470142Y-121118333D01*
X142708238Y-121118333D01*
X142803476Y-121165952D01*
X142851095Y-121213571D01*
X142898714Y-121308809D01*
X142898714Y-121546904D01*
X142851095Y-121642142D01*
X142803476Y-121689761D01*
X142708238Y-121737380D01*
X142470142Y-121737380D01*
X142374904Y-121689761D01*
X142327285Y-121642142D01*
%TO.C,C3*%
X141997133Y-126644842D02*
X141949514Y-126692461D01*
X141806657Y-126740080D01*
X141711419Y-126740080D01*
X141568561Y-126692461D01*
X141473323Y-126597223D01*
X141425704Y-126501985D01*
X141378085Y-126311509D01*
X141378085Y-126168652D01*
X141425704Y-125978176D01*
X141473323Y-125882938D01*
X141568561Y-125787700D01*
X141711419Y-125740080D01*
X141806657Y-125740080D01*
X141949514Y-125787700D01*
X141997133Y-125835319D01*
X142330466Y-125740080D02*
X142949514Y-125740080D01*
X142616180Y-126121033D01*
X142759038Y-126121033D01*
X142854276Y-126168652D01*
X142901895Y-126216271D01*
X142949514Y-126311509D01*
X142949514Y-126549604D01*
X142901895Y-126644842D01*
X142854276Y-126692461D01*
X142759038Y-126740080D01*
X142473323Y-126740080D01*
X142378085Y-126692461D01*
X142330466Y-126644842D01*
%TO.C,C2*%
X130440133Y-113784842D02*
X130392514Y-113832461D01*
X130249657Y-113880080D01*
X130154419Y-113880080D01*
X130011561Y-113832461D01*
X129916323Y-113737223D01*
X129868704Y-113641985D01*
X129821085Y-113451509D01*
X129821085Y-113308652D01*
X129868704Y-113118176D01*
X129916323Y-113022938D01*
X130011561Y-112927700D01*
X130154419Y-112880080D01*
X130249657Y-112880080D01*
X130392514Y-112927700D01*
X130440133Y-112975319D01*
X130821085Y-112975319D02*
X130868704Y-112927700D01*
X130963942Y-112880080D01*
X131202038Y-112880080D01*
X131297276Y-112927700D01*
X131344895Y-112975319D01*
X131392514Y-113070557D01*
X131392514Y-113165795D01*
X131344895Y-113308652D01*
X130773466Y-113880080D01*
X131392514Y-113880080D01*
%TO.C,R1*%
X118705333Y-124277380D02*
X118372000Y-123801190D01*
X118133904Y-124277380D02*
X118133904Y-123277380D01*
X118514857Y-123277380D01*
X118610095Y-123325000D01*
X118657714Y-123372619D01*
X118705333Y-123467857D01*
X118705333Y-123610714D01*
X118657714Y-123705952D01*
X118610095Y-123753571D01*
X118514857Y-123801190D01*
X118133904Y-123801190D01*
X119657714Y-124277380D02*
X119086285Y-124277380D01*
X119372000Y-124277380D02*
X119372000Y-123277380D01*
X119276761Y-123420238D01*
X119181523Y-123515476D01*
X119086285Y-123563095D01*
D15*
%TO.C,J1*%
X121402800Y-126870700D02*
X124062800Y-126870700D01*
X124062800Y-121730700D02*
X124062800Y-126870700D01*
X121402800Y-121730700D02*
X124062800Y-121730700D01*
X121402800Y-120460700D02*
X121402800Y-119130700D01*
X121402800Y-119130700D02*
X122732800Y-119130700D01*
X121402800Y-121730700D02*
X121402800Y-126870700D01*
%TO.C,U3*%
X130852800Y-121407700D02*
X130552800Y-121407700D01*
X130852800Y-128627700D02*
X130552800Y-128627700D01*
X137772800Y-121407700D02*
X137772800Y-121707700D01*
X130552800Y-121707700D02*
X129237800Y-121707700D01*
X130552800Y-121407700D02*
X130552800Y-121707700D01*
X137772800Y-128627700D02*
X137772800Y-128327700D01*
X137472800Y-128627700D02*
X137772800Y-128627700D01*
X130552800Y-128627700D02*
X130552800Y-128327700D01*
X137472800Y-121407700D02*
X137772800Y-121407700D01*
%TO.C,U2*%
X136142200Y-98325000D02*
X136142200Y-91855000D01*
X136133000Y-91855000D02*
X125503000Y-91855000D01*
X125503000Y-98325000D02*
X136133000Y-98325000D01*
X125503000Y-91855000D02*
X125503000Y-98325000D01*
D16*
X136133000Y-97630000D02*
G75*
G03*
X136133000Y-92550000I-3979334J2540000D01*
G01*
D15*
%TO.C,RV1*%
X152542200Y-93166000D02*
X152542200Y-98236000D01*
X142772200Y-93166000D02*
X142772200Y-98236000D01*
X142772200Y-93166000D02*
X152542200Y-93166000D01*
X142772200Y-98236000D02*
X152542200Y-98236000D01*
%TO.C,SW1*%
X120854800Y-110349200D02*
X120854800Y-113149200D01*
X120854800Y-115349200D02*
X120854800Y-117899200D01*
X108554800Y-117899200D02*
X108554800Y-115349200D01*
X120854800Y-105599200D02*
X120854800Y-108149200D01*
X108554800Y-105599200D02*
X120854800Y-105599200D01*
X108554800Y-108149200D02*
X108554800Y-105599200D01*
X120854800Y-117899200D02*
X108554800Y-117899200D01*
X108554800Y-113149200D02*
X108554800Y-110349200D01*
X119383850Y-111789200D02*
G75*
G03*
X119383850Y-111789200I-4579050J0D01*
G01*
%TO.C,U1*%
X147955000Y-117665000D02*
X144095000Y-117665000D01*
X147955000Y-102045000D02*
X144095000Y-102045000D01*
X144095000Y-117665000D02*
X144095000Y-117375000D01*
X147955000Y-102045000D02*
X151815000Y-102045000D01*
X151815000Y-102045000D02*
X151815000Y-102335000D01*
X151815000Y-117665000D02*
X151815000Y-117375000D01*
X144095000Y-102045000D02*
X144095000Y-102335000D01*
X147955000Y-117665000D02*
X151815000Y-117665000D01*
X144095000Y-102335000D02*
X142305000Y-102335000D01*
%TO.C,C1*%
X126313300Y-121454467D02*
X126313300Y-121161933D01*
X127333300Y-121454467D02*
X127333300Y-121161933D01*
%TO.C,C4*%
X130460533Y-118415700D02*
X130753067Y-118415700D01*
X130460533Y-117395700D02*
X130753067Y-117395700D01*
%TO.C,SW2*%
X120829400Y-95363200D02*
X120829400Y-98163200D01*
X108529400Y-93163200D02*
X108529400Y-90613200D01*
X108529400Y-90613200D02*
X120829400Y-90613200D01*
X108529400Y-102913200D02*
X108529400Y-100363200D01*
X120829400Y-100363200D02*
X120829400Y-102913200D01*
X108529400Y-98163200D02*
X108529400Y-95363200D01*
X120829400Y-102913200D02*
X108529400Y-102913200D01*
X120829400Y-90613200D02*
X120829400Y-93163200D01*
X119358450Y-96803200D02*
G75*
G03*
X119358450Y-96803200I-4579050J0D01*
G01*
%TO.C,C5*%
X141653800Y-123451233D02*
X141653800Y-123743767D01*
X142673800Y-123451233D02*
X142673800Y-123743767D01*
%TO.C,C3*%
X141653800Y-128580933D02*
X141653800Y-128873467D01*
X142673800Y-128580933D02*
X142673800Y-128873467D01*
%TO.C,C2*%
X130460533Y-114347700D02*
X130753067Y-114347700D01*
X130460533Y-115367700D02*
X130753067Y-115367700D01*
%TO.C,R1*%
X118400300Y-121562924D02*
X118400300Y-121053476D01*
X119445300Y-121562924D02*
X119445300Y-121053476D01*
%TO.C,J2*%
X97725000Y-132140000D02*
X102925000Y-132140000D01*
X97725000Y-83760000D02*
X99055000Y-83760000D01*
X102925000Y-83760000D02*
X102925000Y-132140000D01*
X100325000Y-83760000D02*
X102925000Y-83760000D01*
X97725000Y-86360000D02*
X100325000Y-86360000D01*
X100325000Y-86360000D02*
X100325000Y-83760000D01*
X97725000Y-85090000D02*
X97725000Y-83760000D01*
X97725000Y-86360000D02*
X97725000Y-132140000D01*
%TO.C,J3*%
X158685000Y-132140000D02*
X163885000Y-132140000D01*
X158685000Y-86360000D02*
X158685000Y-132140000D01*
X161285000Y-83760000D02*
X163885000Y-83760000D01*
X158685000Y-83760000D02*
X160015000Y-83760000D01*
X158685000Y-86360000D02*
X161285000Y-86360000D01*
X161285000Y-86360000D02*
X161285000Y-83760000D01*
X163885000Y-83760000D02*
X163885000Y-132140000D01*
X158685000Y-85090000D02*
X158685000Y-83760000D01*
%TD*%
M02*
