M48
; DRILL file {KiCad 6.0.7+dfsg-1~bpo10+1} date Thu 25 May 2023 02:56:23 PM BST
; FORMAT={-:-/ absolute / inch / decimal}
; #@! TF.CreationDate,2023-05-25T14:56:23+01:00
; #@! TF.GenerationSoftware,Kicad,Pcbnew,6.0.7+dfsg-1~bpo10+1
; #@! TF.FileFunction,MixedPlating,1,2
FMAT,2
INCH
; #@! TA.AperFunction,Plated,PTH,ViaDrill
T1C0.0157
; #@! TA.AperFunction,Plated,PTH,ComponentDrill
T2C0.0315
; #@! TA.AperFunction,Plated,PTH,ComponentDrill
T3C0.0394
; #@! TA.AperFunction,Plated,PTH,ComponentDrill
T4C0.0512
%
G90
G05
T1
X5.03Y-4.52
X5.03Y-4.64
X5.05Y-4.74
X5.11Y-4.75
X5.2Y-4.825
X5.245Y-4.52
X5.245Y-4.64
X5.315Y-4.65
X5.315Y-4.875
X5.425Y-4.66
X5.498Y-5.102
X5.51Y-4.84
X5.525Y-4.92
X5.54Y-4.66
X5.5433Y-3.89
X5.72Y-4.5
X5.905Y-4.3
X5.905Y-4.35
X5.905Y-4.4
X5.905Y-4.45
X6.1Y-4.65
X6.145Y-4.025
T2
X4.9934Y-3.5437
X4.9934Y-3.9437
X5.0722Y-3.5437
X5.0722Y-3.9437
X5.1509Y-3.5437
X5.1509Y-3.9437
X5.2296Y-3.5437
X5.2296Y-3.9437
X5.3084Y-3.5437
X5.3084Y-3.9437
X5.7133Y-3.7676
X5.8133Y-3.7676
X5.9133Y-3.7676
T3
X3.8998Y-3.35
X3.8998Y-3.45
X3.8998Y-3.55
X3.8998Y-3.65
X3.8998Y-3.75
X3.8998Y-3.85
X3.8998Y-3.95
X3.8998Y-4.05
X3.8998Y-4.15
X3.8998Y-4.25
X3.8998Y-4.35
X3.8998Y-4.45
X3.8998Y-4.55
X3.8998Y-4.65
X3.8998Y-4.75
X3.8998Y-4.85
X3.8998Y-4.95
X3.8998Y-5.05
X3.8998Y-5.15
X3.9998Y-3.35
X3.9998Y-3.45
X3.9998Y-3.55
X3.9998Y-3.65
X3.9998Y-3.75
X3.9998Y-3.85
X3.9998Y-3.95
X3.9998Y-4.05
X3.9998Y-4.15
X3.9998Y-4.25
X3.9998Y-4.35
X3.9998Y-4.45
X3.9998Y-4.55
X3.9998Y-4.65
X3.9998Y-4.75
X3.9998Y-4.85
X3.9998Y-4.95
X3.9998Y-5.05
X3.9998Y-5.15
X4.832Y-4.7425
X4.832Y-4.8425
X4.832Y-4.9425
X6.2998Y-3.35
X6.2998Y-3.45
X6.2998Y-3.55
X6.2998Y-3.65
X6.2998Y-3.75
X6.2998Y-3.85
X6.2998Y-3.95
X6.2998Y-4.05
X6.2998Y-4.15
X6.2998Y-4.25
X6.2998Y-4.35
X6.2998Y-4.45
X6.2998Y-4.55
X6.2998Y-4.65
X6.2998Y-4.75
X6.2998Y-4.85
X6.2998Y-4.95
X6.2998Y-5.05
X6.2998Y-5.15
X6.3998Y-3.35
X6.3998Y-3.45
X6.3998Y-3.55
X6.3998Y-3.65
X6.3998Y-3.75
X6.3998Y-3.85
X6.3998Y-3.95
X6.3998Y-4.05
X6.3998Y-4.15
X6.3998Y-4.25
X6.3998Y-4.35
X6.3998Y-4.45
X6.3998Y-4.55
X6.3998Y-4.65
X6.3998Y-4.75
X6.3998Y-4.85
X6.3998Y-4.95
X6.3998Y-5.05
X6.3998Y-5.15
T4
X4.2689Y-3.7111
X4.2689Y-3.908
X4.2699Y-4.3011
X4.2699Y-4.498
X4.761Y-3.7111
X4.761Y-3.908
X4.762Y-4.3011
X4.762Y-4.498
T0
M30
