%TF.GenerationSoftware,KiCad,Pcbnew,6.0.7+dfsg-1~bpo10+1*%
%TF.CreationDate,2023-05-25T14:56:37+01:00*%
%TF.ProjectId,stm32_lcd_driver,73746d33-325f-46c6-9364-5f6472697665,C*%
%TF.SameCoordinates,Original*%
%TF.FileFunction,Paste,Top*%
%TF.FilePolarity,Positive*%
%FSLAX46Y46*%
G04 Gerber Fmt 4.6, Leading zero omitted, Abs format (unit mm)*
G04 Created by KiCad (PCBNEW 6.0.7+dfsg-1~bpo10+1) date 2023-05-25 14:56:37*
%MOMM*%
%LPD*%
G01*
G04 APERTURE LIST*
G04 Aperture macros list*
%AMRoundRect*
0 Rectangle with rounded corners*
0 $1 Rounding radius*
0 $2 $3 $4 $5 $6 $7 $8 $9 X,Y pos of 4 corners*
0 Add a 4 corners polygon primitive as box body*
4,1,4,$2,$3,$4,$5,$6,$7,$8,$9,$2,$3,0*
0 Add four circle primitives for the rounded corners*
1,1,$1+$1,$2,$3*
1,1,$1+$1,$4,$5*
1,1,$1+$1,$6,$7*
1,1,$1+$1,$8,$9*
0 Add four rect primitives between the rounded corners*
20,1,$1+$1,$2,$3,$4,$5,0*
20,1,$1+$1,$4,$5,$6,$7,0*
20,1,$1+$1,$6,$7,$8,$9,0*
20,1,$1+$1,$8,$9,$2,$3,0*%
G04 Aperture macros list end*
%ADD10RoundRect,0.125000X-0.625000X-0.125000X0.625000X-0.125000X0.625000X0.125000X-0.625000X0.125000X0*%
%ADD11RoundRect,0.125000X-0.125000X-0.625000X0.125000X-0.625000X0.125000X0.625000X-0.125000X0.625000X0*%
%ADD12RoundRect,0.137500X-0.862500X-0.137500X0.862500X-0.137500X0.862500X0.137500X-0.862500X0.137500X0*%
%ADD13RoundRect,0.237500X0.237500X-0.300000X0.237500X0.300000X-0.237500X0.300000X-0.237500X-0.300000X0*%
%ADD14RoundRect,0.237500X-0.300000X-0.237500X0.300000X-0.237500X0.300000X0.237500X-0.300000X0.237500X0*%
%ADD15RoundRect,0.237500X-0.237500X0.300000X-0.237500X-0.300000X0.237500X-0.300000X0.237500X0.300000X0*%
%ADD16RoundRect,0.237500X0.237500X-0.250000X0.237500X0.250000X-0.237500X0.250000X-0.237500X-0.250000X0*%
G04 APERTURE END LIST*
D10*
%TO.C,U3*%
X129987800Y-122217700D03*
X129987800Y-123017700D03*
X129987800Y-123817700D03*
X129987800Y-124617700D03*
X129987800Y-125417700D03*
X129987800Y-126217700D03*
X129987800Y-127017700D03*
X129987800Y-127817700D03*
D11*
X131362800Y-129192700D03*
X132162800Y-129192700D03*
X132962800Y-129192700D03*
X133762800Y-129192700D03*
X134562800Y-129192700D03*
X135362800Y-129192700D03*
X136162800Y-129192700D03*
X136962800Y-129192700D03*
D10*
X138337800Y-127817700D03*
X138337800Y-127017700D03*
X138337800Y-126217700D03*
X138337800Y-125417700D03*
X138337800Y-124617700D03*
X138337800Y-123817700D03*
X138337800Y-123017700D03*
X138337800Y-122217700D03*
D11*
X136962800Y-120842700D03*
X136162800Y-120842700D03*
X135362800Y-120842700D03*
X134562800Y-120842700D03*
X133762800Y-120842700D03*
X132962800Y-120842700D03*
X132162800Y-120842700D03*
X131362800Y-120842700D03*
%TD*%
D12*
%TO.C,U1*%
X143305000Y-102870000D03*
X143305000Y-104140000D03*
X143305000Y-105410000D03*
X143305000Y-106680000D03*
X143305000Y-107950000D03*
X143305000Y-109220000D03*
X143305000Y-110490000D03*
X143305000Y-111760000D03*
X143305000Y-113030000D03*
X143305000Y-114300000D03*
X143305000Y-115570000D03*
X143305000Y-116840000D03*
X152605000Y-116840000D03*
X152605000Y-115570000D03*
X152605000Y-114300000D03*
X152605000Y-113030000D03*
X152605000Y-111760000D03*
X152605000Y-110490000D03*
X152605000Y-109220000D03*
X152605000Y-107950000D03*
X152605000Y-106680000D03*
X152605000Y-105410000D03*
X152605000Y-104140000D03*
X152605000Y-102870000D03*
%TD*%
D13*
%TO.C,C1*%
X126823300Y-122170700D03*
X126823300Y-120445700D03*
%TD*%
D14*
%TO.C,C4*%
X129744300Y-117905700D03*
X131469300Y-117905700D03*
%TD*%
D15*
%TO.C,C5*%
X142163800Y-122735000D03*
X142163800Y-124460000D03*
%TD*%
%TO.C,C3*%
X142163800Y-127864700D03*
X142163800Y-129589700D03*
%TD*%
D14*
%TO.C,C2*%
X129744300Y-114857700D03*
X131469300Y-114857700D03*
%TD*%
D16*
%TO.C,R1*%
X118922800Y-122220700D03*
X118922800Y-120395700D03*
%TD*%
M02*
